<?xml version="1.0" encoding="UTF-8"?><svg id="a" xmlns="http://www.w3.org/2000/svg" viewBox="0 0 20 20"><path d="M17.05,11.15l-1.37-.44c.03-.23.05-.47.05-.71,0-.25-.02-.5-.05-.75l1.37-.45c.15-.05.23-.21.18-.35l-.49-1.49c-.05-.15-.21-.23-.35-.18l-1.37.45c-.24-.43-.53-.82-.86-1.17l.84-1.17c.09-.12.06-.3-.06-.39l-1.27-.92c-.12-.09-.3-.06-.39.06l-.84,1.17c-.44-.2-.9-.36-1.39-.45v-1.44c0-.15-.13-.28-.28-.28h-1.57c-.15,0-.28.13-.28.29v1.44c-.48.09-.94.25-1.38.46l-.85-1.17c-.09-.12-.27-.15-.39-.06l-1.26.93c-.12.09-.15.27-.06.39l.85,1.17c-.33.35-.62.75-.86,1.18l-1.37-.44c-.15-.05-.3.03-.35.18l-.48,1.49c-.05.15.03.3.18.35l1.37.44c-.03.23-.05.47-.05.71,0,.25.02.5.05.75l-1.37.45c-.15.05-.23.21-.18.35l.49,1.49c.05.15.21.23.35.18l1.37-.45c.24.43.53.82.86,1.17l-.84,1.17c-.09.12-.06.3.06.39l1.27.92c.12.09.3.06.39-.06l.84-1.17c.44.2.9.36,1.39.45v1.44c0,.15.13.28.28.28h1.57c.15,0,.28-.13.28-.29v-1.44c.48-.09.94-.25,1.38-.46l.85,1.17c.09.12.26.15.39.06l1.26-.93c.12-.09.15-.27.06-.39l-.85-1.17c.33-.36.62-.75.86-1.18l1.37.44c.15.05.3-.03.35-.18l.48-1.49c.05-.15-.03-.3-.18-.35Z" fill="none" stroke="#035894" stroke-linecap="round" stroke-miterlimit="10" stroke-width="1.3"/><circle cx="10" cy="10" r="2.57" fill="none" stroke="#035894" stroke-linecap="round" stroke-miterlimit="10" stroke-width="1.3"/></svg>