<?xml version="1.0" encoding="UTF-8"?><svg id="a" xmlns="http://www.w3.org/2000/svg" viewBox="0 0 20 20"><rect x="3.45" y="10" width="11.76" height="7.7" rx="1.79" ry="1.79" fill="none" stroke="#035894" stroke-linecap="round" stroke-miterlimit="10" stroke-width="1.3"/><path d="M11.51,1.91h-4.1c-1.11,0-2,1.1-2,2.46v5.63h8.11" fill="none" stroke="#035894" stroke-linecap="round" stroke-miterlimit="10" stroke-width="1.3"/><path d="M15.96,6.35l-.48-.15c0-.08.02-.16.02-.24,0-.09,0-.17-.02-.26l.48-.16c.05-.02.08-.07.06-.12l-.17-.52c-.02-.05-.07-.08-.12-.06l-.47.16c-.08-.15-.18-.28-.3-.41l.29-.41s.02-.1-.02-.13l-.44-.32s-.1-.02-.13.02l-.29.41c-.15-.07-.31-.12-.48-.15v-.5c0-.05-.05-.1-.1-.1h-.54c-.05,0-.1.05-.1.1v.5c-.17.03-.33.09-.48.16l-.3-.4s-.09-.05-.13-.02l-.44.32s-.05.09-.02.13l.3.4c-.12.12-.22.26-.3.41l-.47-.15c-.05-.02-.1.01-.12.06l-.17.52c-.02.05.01.1.06.12l.48.15c0,.08-.02.16-.02.24,0,.09,0,.17.02.26l-.48.16c-.05.02-.08.07-.06.12l.17.52c.02.05.07.08.12.06l.47-.16c.08.15.18.28.3.41l-.29.41s-.02.1.02.13l.44.32s.1.02.13-.02l.29-.41c.15.07.31.12.48.15v.5c0,.05.05.1.1.1h.54c.05,0,.1-.05.1-.1v-.5c.17-.03.33-.09.48-.16l.3.4s.09.05.13.02l.44-.32s.05-.09.02-.13l-.3-.4c.12-.12.22-.26.3-.41l.47.15c.05.02.1-.01.12-.06l.17-.52c.02-.05-.01-.1-.06-.12Z" fill="none" stroke="#035894" stroke-linecap="round" stroke-miterlimit="10" stroke-width=".5"/><line x1="9.06" y1="12.33" x2="9.06" y2="15.59" fill="none" stroke="#035894" stroke-linecap="round" stroke-miterlimit="10" stroke-width="1.3"/></svg>