<?xml version="1.0" encoding="UTF-8"?><svg id="a" xmlns="http://www.w3.org/2000/svg" viewBox="0 0 16 16"><rect x="1.5" y="1.5" width="5.63" height="2.62" rx=".5" ry=".5" fill="#fff"/><rect x="8.08" y="1.5" width="6.42" height="13" rx=".63" ry=".63" transform="translate(22.58 16) rotate(180)" fill="#fff"/><path d="M6.63,5.04H2.01c-.28,0-.51.23-.51.51v8.45c0,.28.23.51.51.51h4.62c.28,0,.51-.23.51-.51V5.55c0-.28-.23-.51-.51-.51ZM5.62,12.96h-2.61c-.17,0-.31-.14-.31-.31s.14-.31.31-.31h2.61c.17,0,.31.14.31.31s-.14.31-.31.31ZM5.62,11.01h-2.61c-.17,0-.31-.14-.31-.31s.14-.31.31-.31h2.61c.17,0,.31.14.31.31s-.14.31-.31.31ZM5.62,9.05h-2.61c-.17,0-.31-.14-.31-.31s.14-.31.31-.31h2.61c.17,0,.31.14.31.31s-.14.31-.31.31ZM5.62,7.1h-2.61c-.17,0-.31-.14-.31-.31s.14-.31.31-.31h2.61c.17,0,.31.14.31.31s-.14.31-.31.31Z" fill="#fff"/></svg>