<?xml version="1.0" encoding="UTF-8"?><svg id="a" xmlns="http://www.w3.org/2000/svg" viewBox="0 0 20 20"><rect x="3.5" y="7.75" width="5.11" height="8.24" rx=".48" ry=".48" fill="none" stroke="#035894" stroke-linecap="round" stroke-miterlimit="10"/><rect x="3.5" y="4.19" width="5.11" height="2.37" rx=".48" ry=".48" fill="none" stroke="#035894" stroke-linecap="round" stroke-miterlimit="10"/><path d="M15.3,9.87v2.08c0,.26-.21.48-.48.48h-4.15c-.26,0-.48-.21-.48-.48v-7.28c0-.26.21-.48.48-.48h.5" fill="none" stroke="#035894" stroke-linecap="round" stroke-miterlimit="10"/><rect x="10.19" y="13.61" width="5.11" height="2.37" rx=".48" ry=".48" transform="translate(25.49 29.59) rotate(180)" fill="none" stroke="#035894" stroke-linecap="round" stroke-miterlimit="10"/><path d="M16.43,6.96l-.48-.15c0-.08.02-.16.02-.24,0-.09,0-.17-.02-.26l.48-.16c.05-.02.08-.07.06-.12l-.17-.52c-.02-.05-.07-.08-.12-.06l-.47.16c-.08-.15-.18-.28-.3-.41l.29-.41s.02-.1-.02-.13l-.44-.32s-.1-.02-.13.02l-.29.41c-.15-.07-.31-.12-.48-.15v-.5c0-.05-.05-.1-.1-.1h-.54c-.05,0-.1.05-.1.1v.5c-.17.03-.33.09-.48.16l-.3-.4s-.09-.05-.13-.02l-.44.32s-.05.09-.02.13l.3.4c-.12.12-.22.26-.3.41l-.47-.15c-.05-.02-.1.01-.12.06l-.17.52c-.02.05.01.1.06.12l.48.15c0,.08-.02.16-.02.24,0,.09,0,.17.02.26l-.48.16c-.05.02-.08.07-.06.12l.17.52c.02.05.07.08.12.06l.47-.16c.08.15.18.28.3.41l-.29.41s-.02.1.02.13l.44.32s.1.02.13-.02l.29-.41c.15.07.31.12.48.15v.5c0,.05.05.1.1.1h.54c.05,0,.1-.05.1-.1v-.5c.17-.03.33-.09.48-.16l.3.4s.09.05.13.02l.44-.32s.05-.09.02-.13l-.3-.4c.12-.12.22-.26.3-.41l.47.15c.05.02.1-.01.12-.06l.17-.52c.02-.05-.01-.1-.06-.12Z" fill="none" stroke="#035894" stroke-linecap="round" stroke-miterlimit="10" stroke-width=".5"/></svg>